<svg xmlns="http://www.w3.org/2000/svg" height="24" viewBox="0 -960 960 960" width="24"><path fill="#[[color]]" d="M664-240 537-367l57-57 126 126v-62q0-17 11.5-28.5T760-400q17 0 28.5 11.5T800-360v160q0 17-11.5 28.5T760-160H600q-17 0-28.5-11.5T560-200q0-17 11.5-28.5T600-240h64Zm56-424L243.65-187.65Q233-177 216-177t-28-11q-11-11-11-28t11-28l476-476h-64q-17 0-28.5-11.5T560-760q0-17 11.5-28.5T600-800h160q17 0 28.5 11.5T800-760v160q0 17-11.5 28.5T760-560q-17 0-28.5-11.5T720-600v-64ZM367-537 188-716q-11-11-11-28t11-28q11.25-11 28.125-11T244-772l179 179-56 56Z"/></svg>